<?xml version="1.0" encoding="UTF-8" standalone="no"?>
<!-- Created with Inkscape (http://www.inkscape.org/) -->

<svg
   width="177.89595mm"
   height="28.695379mm"
   viewBox="0 0 177.89595 28.695379"
   version="1.1"
   id="svg5"
   inkscape:version="1.1 (c68e22c387, 2021-05-23)"
   sodipodi:docname="logo.svg"
   xmlns:inkscape="http://www.inkscape.org/namespaces/inkscape"
   xmlns:sodipodi="http://sodipodi.sourceforge.net/DTD/sodipodi-0.dtd"
   xmlns="http://www.w3.org/2000/svg"
   xmlns:svg="http://www.w3.org/2000/svg">
  <sodipodi:namedview
     id="namedview7"
     pagecolor="#505050"
     bordercolor="#eeeeee"
     borderopacity="1"
     inkscape:pageshadow="0"
     inkscape:pageopacity="0"
     inkscape:pagecheckerboard="0"
     inkscape:document-units="mm"
     showgrid="false"
     inkscape:zoom="0.97068825"
     inkscape:cx="153.49933"
     inkscape:cy="206.55447"
     inkscape:window-width="1920"
     inkscape:window-height="1017"
     inkscape:window-x="0"
     inkscape:window-y="0"
     inkscape:window-maximized="1"
     inkscape:current-layer="layer1"
     inkscape:snap-object-midpoints="true"
     inkscape:object-paths="true"
     inkscape:object-nodes="true"
     inkscape:snap-intersection-paths="true"
     inkscape:snap-midpoints="true"
     inkscape:snap-smooth-nodes="true"
     inkscape:snap-text-baseline="true"
     inkscape:snap-center="true"
     fit-margin-top="0"
     fit-margin-left="0"
     fit-margin-right="0"
     fit-margin-bottom="0" />
  <defs
     id="defs2">
    <rect
       x="132.81024"
       y="269.58557"
       width="631.54779"
       height="333.40686"
       id="rect3880" />
  </defs>
  <g
     inkscape:label="Layer 1"
     inkscape:groupmode="layer"
     id="layer1"
     transform="translate(-10.716446,-77.128021)">
    <path
       style="fill:none;stroke:#6a6a6a;stroke-width:1.25;stroke-linecap:round;stroke-linejoin:round;stroke-miterlimit:4;stroke-dasharray:none;stroke-opacity:1"
       d="M 39.992378,105.07822 47.247507,86.146014"
       id="path28371" />
    <path
       id="path2729"
       style="fill:none;stroke:#6a6a6a;stroke-width:1.25;stroke-linecap:round;stroke-linejoin:round;stroke-miterlimit:4;stroke-dasharray:none;stroke-opacity:1"
       d="m 62.968125,94.520635 h 8.457437 l 8.06668,8.344895 23.458898,-1e-5 v 0 0"
       sodipodi:nodetypes="cccccc" />
    <path
       id="path14186"
       style="fill:none;stroke:#6a6a6a;stroke-width:1.25;stroke-linecap:round;stroke-linejoin:round;stroke-miterlimit:4;stroke-dasharray:none;stroke-opacity:1"
       d="m 131.93889,88.812644 c 0.21058,0.85171 0.32447,1.761519 0.32447,2.706605 0,4.793903 -2.93047,8.680131 -6.54539,8.680131 -2.54688,0 -4.75401,-1.929069 -5.83589,-4.745527 l -10.25932,-10e-7 -15.907924,-17.323947"
       sodipodi:nodetypes="cssccc" />
    <path
       id="ellipse12467-7"
       style="fill:none;stroke:#6a6a6a;stroke-width:1.25;stroke-linecap:round;stroke-linejoin:round;stroke-opacity:1"
       d="m 158.26829,91.519241 a 6.5453916,8.6801329 0 0 1 -6.54539,8.680129 6.5453916,8.6801329 0 0 1 -6.54539,-8.680129 6.5453916,8.6801329 0 0 1 6.54539,-8.680133 6.5453916,8.6801329 0 0 1 6.54539,8.680133 z" />
    <path
       style="fill:none;stroke:#fafafa;stroke-width:1.25;stroke-linecap:round;stroke-linejoin:round;stroke-miterlimit:4;stroke-dasharray:none;stroke-opacity:1"
       d="m 37.346545,105.07822 5.236948,-13.558972 5.193705,-13.659738 1.397583,3.699489 8.885028,23.519221 v 0"
       id="path28369" />
    <path
       id="path28979"
       style="fill:none;stroke:#fafafa;stroke-width:1.25035;stroke-linecap:round;stroke-linejoin:round;stroke-miterlimit:4;stroke-dasharray:none;stroke-opacity:1"
       d="m 11.341621,77.913591 h 13.910435 c 0,0 6.80283,-0.449863 6.80283,6.802853 0,7.252715 -6.80283,6.802852 -6.80283,6.802852 h -6.974614"
       sodipodi:nodetypes="ccccc" />
    <path
       style="fill:none;stroke:#6a6a6a;stroke-width:1.25035;stroke-linecap:round;stroke-linejoin:round;stroke-miterlimit:4;stroke-dasharray:none;stroke-opacity:1"
       d="m 15.750116,102.85062 c 9.186234,0.0149 9.186234,0.0149 9.186234,0.0149 v 0 0"
       id="path10314" />
    <path
       id="path28977"
       style="fill:none;stroke:#fafafa;stroke-width:1.25035;stroke-linecap:round;stroke-linejoin:round;stroke-miterlimit:4;stroke-dasharray:none;stroke-opacity:1"
       d="m 29.891581,92.973503 c 1.200867,0.982343 2.163305,2.620593 2.163305,5.348571 0,7.252686 -6.80283,6.802826 -6.80283,6.802826 L 15.700045,105.11 V 81.703784"
       sodipodi:nodetypes="ccccc" />
    <path
       id="path1985-3"
       style="fill:none;stroke:#fafafa;stroke-width:1.25;stroke-linecap:round;stroke-linejoin:round;stroke-miterlimit:4;stroke-dasharray:none;stroke-opacity:1"
       d="m 47.703178,91.519248 v 0 l 5.119682,-0.04669 24.439056,0.04673 26.004924,5e-6 c 0,0 6.80283,0.449863 6.80283,-6.802852 0,-7.252716 -6.80283,-6.802853 -6.80283,-6.802853 l -9.552004,0.216316"
       sodipodi:nodetypes="cccccccc" />
    <path
       id="path10314-3-3"
       style="fill:none;stroke:#fafafa;stroke-width:1.25035;stroke-linecap:round;stroke-linejoin:round;stroke-miterlimit:4;stroke-dasharray:none;stroke-opacity:1"
       d="m 107.90634,92.973488 c 1.20087,0.98234 2.1633,2.62059 2.1633,5.34857 0,7.252702 -6.8028,6.802842 -6.8028,6.802842 l -9.552009,-0.0149 5e-6,-26.980095"
       sodipodi:nodetypes="ccccc" />
    <path
       id="path28794"
       style="fill:none;stroke:#fafafa;stroke-width:1.25035;stroke-linecap:round;stroke-linejoin:round;stroke-miterlimit:4;stroke-dasharray:none;stroke-opacity:1"
       d="m 63.351481,77.913589 h 13.910435 c 0,0 6.802806,-0.449863 6.802806,6.802853 0,7.252719 -6.802806,6.802849 -6.802806,6.802849 l -4.404561,-3e-6"
       sodipodi:nodetypes="ccccc" />
    <path
       id="path10314-3"
       style="fill:none;stroke:#fafafa;stroke-width:1.25035;stroke-linecap:round;stroke-linejoin:round;stroke-miterlimit:4;stroke-dasharray:none;stroke-opacity:1"
       d="m 81.901422,92.973501 c 1.20087,0.98234 2.1633,2.62059 2.1633,5.34857 0,7.252699 -6.802806,6.802839 -6.802806,6.802839 l -9.552011,-0.0149 V 81.703782"
       sodipodi:nodetypes="ccccc" />
    <ellipse
       style="fill:none;stroke:#fafafa;stroke-width:1.25;stroke-linecap:round;stroke-linejoin:round;stroke-miterlimit:4;stroke-dasharray:none;stroke-opacity:1"
       id="path4875"
       cx="125.71798"
       cy="91.519249"
       rx="10.259562"
       ry="13.605659" />
    <ellipse
       style="fill:none;stroke:#fafafa;stroke-width:1.25;stroke-linecap:round;stroke-linejoin:round;stroke-miterlimit:4;stroke-dasharray:none;stroke-opacity:1"
       id="path4875-6"
       cx="151.7229"
       cy="91.519241"
       rx="10.259562"
       ry="13.605659" />
    <ellipse
       style="fill:none;stroke:#fafafa;stroke-width:1.25;stroke-linecap:round;stroke-linejoin:round;stroke-miterlimit:4;stroke-dasharray:none;stroke-opacity:1"
       id="ellipse14747"
       cx="151.7229"
       cy="91.519241"
       rx="10.259562"
       ry="13.605659" />
    <path
       id="path24197-5"
       style="fill:none;stroke:#fafafa;stroke-width:1.25;stroke-linecap:round;stroke-linejoin:round;stroke-miterlimit:4;stroke-dasharray:none;stroke-opacity:1"
       d="m 187.9874,105.1249 h -6.56568 l -14.10563,-19.408563 -0.042,19.408563 h 3.97664 v -7.696785 m 16.73664,7.770285 v -24.012799 0 0"
       sodipodi:nodetypes="cccccccccc" />
    <path
       id="path27623"
       style="fill:none;stroke:#fafafa;stroke-width:1.25;stroke-linecap:round;stroke-linejoin:round;stroke-miterlimit:4;stroke-dasharray:none;stroke-opacity:1"
       d="m 125.71739,105.1249 h 15.64888 l 20.71326,-27.211311 h 5.19461 l 16.63478,22.888531 v -23.049099 0 0"
       sodipodi:nodetypes="cccccccc" />
  </g>
</svg>
